<?xml version="1.0" encoding="UTF-8"?>
<svg version="1.1" xmlns="http://www.w3.org/2000/svg" width="236" height="416">
<path d="M0 0 C1.04800781 0.45246094 2.09601563 0.90492187 3.17578125 1.37109375 C29.18009394 13.52940154 50.53426351 36.71655821 60.67822266 63.5402832 C63.50422676 71.53215013 65.56571564 79.64047699 67 88 C67.13148438 88.74894531 67.26296875 89.49789062 67.3984375 90.26953125 C69.4437184 104.72469219 68.75568782 121.37141342 64.24926758 135.32446289 C61.24432629 144.63571405 61.43786954 153.99977166 61.3125 163.6875 C61.2792643 165.46812311 61.24476905 167.24872317 61.20898438 169.02929688 C61.1248024 173.35273592 61.0576601 177.67612926 61 182 C58.66705225 182.04241723 56.33297433 182.04092937 54 182 C52.00383446 180.00383446 52.59016573 176.18298037 52.4375 173.4375 C52.37272461 172.37112305 52.37272461 172.37112305 52.30664062 171.28320312 C52.20028223 169.52238088 52.09961154 167.7612168 52 166 C50.92685547 167.50626953 50.92685547 167.50626953 49.83203125 169.04296875 C31.0278595 195.03452702 6.30242022 213.93498727 -26 219.3125 C-30.71313516 219.94052673 -35.25131937 220.18622277 -40 220 C-40 224.29 -40 228.58 -40 233 C-42.64 233 -45.28 233 -48 233 C-48 228.71 -48 224.42 -48 220 C-49.30839844 220.03351563 -50.61679688 220.06703125 -51.96484375 220.1015625 C-56.67897254 220.09603705 -60.9823752 219.44238245 -65.5625 218.375 C-66.33843506 218.19533691 -67.11437012 218.01567383 -67.91381836 217.83056641 C-85.89133664 213.47936656 -102.85615645 205.75273924 -116.21484375 192.71484375 C-117.89975607 190.92632636 -117.89975607 190.92632636 -120 190 C-120 189.34 -120 188.68 -120 188 C-120.639375 187.731875 -121.27875 187.46375 -121.9375 187.1875 C-124 186 -124 186 -125 183 C-125.66 183 -126.32 183 -127 183 C-128.73082971 180.97228698 -130.34408286 178.94395409 -131.9375 176.8125 C-132.38029297 176.23435547 -132.82308594 175.65621094 -133.27929688 175.06054688 C-135.76904487 171.77675108 -137.85967993 168.56720011 -140 165 C-140.33 170.61 -140.66 176.22 -141 182 C-143.64 182 -146.28 182 -149 182 C-149.0093457 180.89712646 -149.01869141 179.79425293 -149.02832031 178.65795898 C-149.06876243 174.49204868 -149.13465874 170.32683571 -149.20751953 166.16137695 C-149.23541958 164.37240688 -149.25678484 162.58332063 -149.27099609 160.79418945 C-149.35760241 150.49669881 -149.94682713 141.16602422 -153.02929688 131.30126953 C-160.90895408 104.50330054 -154.68647998 74.28020467 -142 50 C-126.21586205 22.75913075 -101.76145676 3.06595309 -71.65625 -6.0078125 C-47.54542374 -12.27906277 -22.70071809 -9.82898679 0 0 Z M-38 7 C-37.67128906 7.48726562 -37.34257813 7.97453125 -37.00390625 8.4765625 C-35.32581952 10.97777579 -33.66134923 13.4876331 -32 16 C-31.64131836 16.54092285 -31.28263672 17.0818457 -30.91308594 17.63916016 C-26.12298227 24.88588512 -21.63043172 32.08237504 -18 40 C-14.01764402 39.39830447 -10.14381259 38.57092304 -6.23803711 37.59082031 C2.79083396 35.33334174 11.74811313 33.9463572 21 33 C5.96947891 17.54156372 -16.32862409 7.451487 -38 7 Z M-109 32 C-109 32.33 -109 32.66 -109 33 C-108.42258057 33.06469482 -107.84516113 33.12938965 -107.25024414 33.19604492 C-94.38066663 34.68094715 -82.29013379 36.87612221 -70 41 C-69.52691406 39.99582031 -69.05382812 38.99164063 -68.56640625 37.95703125 C-58.87260773 17.76843731 -58.87260773 17.76843731 -51.23828125 10.26953125 C-49.76725291 9.05695065 -49.76725291 9.05695065 -50 7 C-71.0798253 7 -93.8090647 17.96413582 -109 32 Z M-45.53125 10.4765625 C-53.13014727 18.76900991 -62.1142885 29.92180247 -65 41 C-63.76442705 44.70671886 -62.85094294 44.88274832 -59.5 46.6875 C-54.01986595 49.82238936 -49.55919411 53.66105681 -45 58 C-41.37628489 56.42151988 -38.68631612 54.17844739 -35.6875 51.625 C-31.61173253 48.23216944 -27.71457414 45.40967122 -23 43 C-26.67976353 30.01259931 -34.39388524 19.22182213 -43 9 C-44.23455864 8.88431074 -44.23455864 8.88431074 -45.53125 10.4765625 Z M-110 39 C-109.61623106 52.35515911 -107.53514468 64.72779351 -102 77 C-101.13834229 76.82609741 -101.13834229 76.82609741 -100.25927734 76.64868164 C-97.63139191 76.11892154 -95.0031997 75.59069869 -92.375 75.0625 C-91.01955078 74.78889648 -91.01955078 74.78889648 -89.63671875 74.50976562 C-85.10100762 73.59931266 -80.57062353 72.7212778 -76 72 C-75.81824219 70.19015625 -75.81824219 70.19015625 -75.6328125 68.34375 C-75.46384119 66.72913529 -75.29455344 65.11455368 -75.125 63.5 C-75.04636719 62.70851563 -74.96773437 61.91703125 -74.88671875 61.1015625 C-74.33344911 55.90933976 -73.3751765 51.03846179 -72 46 C-84.42030154 40.36221336 -96.45887325 38.44436106 -110 39 Z M-15 45 C-14.85769192 46.41702513 -14.71099254 47.8336096 -14.5625 49.25 C-14.48128906 50.03890625 -14.40007812 50.8278125 -14.31640625 51.640625 C-14.06152316 53.93264682 -14.06152316 53.93264682 -13.5 55.84375 C-12.7774016 58.95995561 -12.64420556 62.06082855 -12.4375 65.25 C-12.35371094 66.51328125 -12.26992187 67.7765625 -12.18359375 69.078125 C-12.12300781 70.04234375 -12.06242188 71.0065625 -12 72 C-8.62522069 72.64699006 -5.25013807 73.29238432 -1.875 73.9375 C-0.92367187 74.11990234 0.02765625 74.30230469 1.0078125 74.49023438 C5.66431024 75.3794961 10.31831669 76.25124594 15 77 C15.98469803 73.62658906 16.96176103 70.25101218 17.9375 66.875 C18.21529297 65.92367187 18.49308594 64.97234375 18.77929688 63.9921875 C20.70927966 57.29537976 22.14800074 51.13606096 22.0625 44.125 C22.05347656 43.15820312 22.04445312 42.19140625 22.03515625 41.1953125 C22.02355469 40.47085938 22.01195312 39.74640625 22 39 C9.21881795 38.18706263 -2.96479795 40.76574508 -15 45 Z M-116 40 C-126.67462368 51.3135039 -132.77453712 65.23654061 -137 80 C-137.24621094 80.85464844 -137.49242187 81.70929688 -137.74609375 82.58984375 C-139.14222151 88.06844167 -139.21162456 93.36843531 -139 99 C-136.15593269 97.15519958 -133.37871479 95.28818028 -130.6796875 93.234375 C-123.2015744 87.56440268 -115.34054907 83.23218145 -107 79 C-107.32613281 78.11183594 -107.65226562 77.22367188 -107.98828125 76.30859375 C-112.12616129 64.42545108 -113.6831198 52.47674296 -115 40 C-115.33 40 -115.66 40 -116 40 Z M28 41 C27.86948242 41.72477539 27.73896484 42.44955078 27.60449219 43.19628906 C26.99535044 46.54923567 26.37274585 49.89955451 25.75 53.25 C25.54503906 54.38953125 25.34007812 55.5290625 25.12890625 56.703125 C23.6875772 64.39021328 21.67132564 71.64966482 19 79 C20.52367187 79.81791016 20.52367187 79.81791016 22.078125 80.65234375 C32.01843417 86.06772242 42.13628839 91.6921585 50 100 C50.99 99.505 50.99 99.505 52 99 C50.13203012 78.03412912 43.99160011 56.55238315 29 41 C28.67 41 28.34 41 28 41 Z M-68 48 C-69.91958262 56.39817396 -70.22588024 64.40400201 -70 73 C-68.0636296 73.50435694 -66.12585854 74.00333874 -64.1875 74.5 C-63.10855469 74.7784375 -62.02960938 75.056875 -60.91796875 75.34375 C-58.01066025 76.10970948 -58.01066025 76.10970948 -55 76 C-54.01515892 74.25318707 -53.03733813 72.5024149 -52.0625 70.75 C-51.51722656 69.77546875 -50.97195312 68.8009375 -50.41015625 67.796875 C-49.23389165 65.46389591 -48.47898309 63.54649238 -48 61 C-49.89224857 59.39143782 -51.78856025 57.78813034 -53.6875 56.1875 C-54.21794922 55.73568359 -54.74839844 55.28386719 -55.29492188 54.81835938 C-60.96146938 49.7508696 -60.96146938 49.7508696 -68 48 Z M-40 61 C-39.35256333 64.82990706 -37.54688763 67.5283898 -35.4375 70.75 C-33.7359375 73.34875 -33.7359375 73.34875 -32 76 C-27.05 75.01 -22.1 74.02 -17 73 C-17.60027697 60.3690504 -17.60027697 60.3690504 -20 48 C-26.88595464 48 -35.1068128 56.54176278 -40 61 Z M-45 67 C-46.98 70.63 -48.96 74.26 -51 78 C-47.24314899 80.38239333 -45.65208008 81.11758821 -41.1875 80.3125 C-37.91232788 79.37197305 -37.91232788 79.37197305 -37 77 C-38.14718881 74.51139906 -38.14718881 74.51139906 -39.8125 71.875 C-40.35519531 70.96492188 -40.89789063 70.05484375 -41.45703125 69.1171875 C-41.96621094 68.41851562 -42.47539063 67.71984375 -43 67 C-43.66 67 -44.32 67 -45 67 Z M-100 83 C-95.84251068 89.87438963 -91.51722067 96.14738597 -86 102 C-82.80375738 100.46162154 -79.78394426 98.71133468 -76.75 96.875 C-75.1825 95.92625 -73.615 94.9775 -72 94 C-72.99 88.72 -73.98 83.44 -75 78 C-82.66670479 77.65671471 -94.23812064 77.23812064 -100 83 Z M-12 78 C-12.53414112 79.89212702 -13.05178329 81.78891636 -13.5625 83.6875 C-13.85253906 84.74324219 -14.14257812 85.79898438 -14.44140625 86.88671875 C-15.01987356 90.11076381 -15.1375949 91.93883555 -14 95 C-12.1015185 96.88725388 -12.1015185 96.88725388 -9.6875 98.3125 C-8.51767578 99.08013672 -8.51767578 99.08013672 -7.32421875 99.86328125 C-4.83233793 101.29289701 -4.83233793 101.29289701 -1 101 C4.65241108 95.58642319 8.8984375 89.14707881 12 82 C9.31466436 81.32338 6.627275 80.65853879 3.9375 80 C3.18533203 79.80921875 2.43316406 79.6184375 1.65820312 79.421875 C-3.02773336 78.2858904 -7.17932546 77.79513734 -12 78 Z M-70 79 C-69.34 82.96 -68.68 86.92 -68 91 C-64.36044707 90.11033151 -62.46353349 89.62337263 -60.1875 86.5625 C-58.92725026 83.96836334 -58.92725026 83.96836334 -58 81 C-62.30785975 79.64851459 -65.41957592 79 -70 79 Z M-30 81 C-27.74535536 86.94255252 -27.74535536 86.94255252 -22.75 90.5 C-21.8425 90.665 -20.935 90.83 -20 91 C-19.34 87.04 -18.68 83.08 -18 79 C-22.58042408 79 -25.69214025 79.64851459 -30 81 Z M17 84 C16.5153125 84.76183594 16.030625 85.52367188 15.53125 86.30859375 C11.13896203 93.07440656 6.56362387 99.14043869 1 105 C1.35191406 105.46148437 1.70382813 105.92296875 2.06640625 106.3984375 C13.31259018 121.25632018 13.31259018 121.25632018 16 127 C28.95363146 123.49901852 39.11597315 114.62223619 49 106 C46.03473042 101.93541097 42.71032574 98.9982586 38.625 96.125 C38.02155762 95.69590332 37.41811523 95.26680664 36.79638672 94.82470703 C30.54071636 90.49211798 23.90777334 87.170437 17 84 Z M-133 101 C-134.32752775 102.00769433 -135.65824027 103.01133494 -137 104 C-133.80292137 113.59123589 -117.23126341 121.23087614 -108.73828125 125.7265625 C-106.20106949 127.14056043 -106.20106949 127.14056043 -104 127 C-102.70265183 125.04353931 -101.4878734 123.03207974 -100.3125 121 C-97.04618932 115.47338422 -93.47805292 110.63198599 -89 106 C-92.91821075 100.71774939 -92.91821075 100.71774939 -97 95.5625 C-99.44553736 92.42915525 -101.57842774 89.13271847 -103.73046875 85.79296875 C-104.14941406 85.20128906 -104.56835938 84.60960938 -105 84 C-114.35732524 84 -126.15091181 95.41926147 -133 101 Z M-57.8125 92.8125 C-61.76020365 98.56486818 -62.36011477 102.80791448 -61.47265625 109.6015625 C-60.57234908 114.17006335 -58.98967788 117.06241043 -55.625 120.25 C-50.5923404 123.6051064 -46.07477568 124.90618201 -40 124 C-34.73950424 122.23377184 -30.96561669 119.79061157 -28 115 C-25.76451283 109.8583795 -25.01760393 105.13304694 -26.72265625 99.6953125 C-29.09021211 93.84831221 -31.70889296 90.77897678 -37.3125 87.75 C-45.21969587 85.54334069 -51.94554086 86.94554086 -57.8125 92.8125 Z M-76.625 102 C-77.85089844 102.8353125 -77.85089844 102.8353125 -79.1015625 103.6875 C-79.72804688 104.120625 -80.35453125 104.55375 -81 105 C-78.24829249 107.9555377 -75.58029701 110.11563315 -72 112 C-71.34 112 -70.68 112 -70 112 C-68.17733121 106.52433616 -68.17733121 106.52433616 -68.875 101 C-69.24625 100.34 -69.6175 99.68 -70 99 C-72.87277077 99 -74.2767056 100.38974098 -76.625 102 Z M-18 99 C-19.82266879 104.47566384 -19.82266879 104.47566384 -19.125 110 C-18.75375 110.66 -18.3825 111.32 -18 112 C-13.89041233 110.54955729 -10.56741255 108.48889248 -7 106 C-10.42388092 102.17330957 -13.00724943 100.27721526 -18 99 Z M-86 109 C-91.68636021 114.89975562 -95.70168506 121.54707681 -99 129 C-90.77257678 131.90702287 -83.73409404 133.13233476 -75 133 C-74.01 127.72 -73.02 122.44 -72 117 C-73.93875 115.68 -75.8775 114.36 -77.875 113 C-78.96554688 112.2575 -80.05609375 111.515 -81.1796875 110.75 C-83.73004833 108.82425144 -83.73004833 108.82425144 -86 109 Z M-9 112.375 C-9.886875 113.00148438 -10.77375 113.62796875 -11.6875 114.2734375 C-14.03762348 115.94191353 -14.03762348 115.94191353 -16 118 C-15.48616214 120.62825112 -14.8843344 123.06873141 -14.125 125.625 C-13.82529297 126.68460938 -13.82529297 126.68460938 -13.51953125 127.765625 C-13.0235315 129.51343363 -12.5131058 131.25713649 -12 133 C-4.53716383 133.44777017 2.893919 132.34298193 10 130 C10.33 129.01 10.66 128.02 11 127 C7.5038257 120.59034711 3.02218404 114.31760663 -2 109 C-5.01665936 109 -6.57147604 110.64538264 -9 112.375 Z M46.375 114.4375 C38.3561391 121.96692781 28.84246123 127.1918145 19 132 C19.32613281 133.05574219 19.65226563 134.11148438 19.98828125 135.19921875 C23.51881833 147.02712597 25.51496704 158.75753315 27 171 C31.08812709 169.63729097 32.47789514 166.89268719 34.75 163.4375 C35.19102051 162.76783203 35.63204102 162.09816406 36.08642578 161.40820312 C46.10331925 145.75111774 51.42728469 128.5846119 52 110 C49.91931621 110 47.72151818 113.13268813 46.375 114.4375 Z M-139 111 C-140.55501814 131.38801556 -131.28200877 152.19147386 -119 168 C-116.86017887 169.86793604 -116.86017887 169.86793604 -115 171 C-114.93530518 170.45287354 -114.87061035 169.90574707 -114.80395508 169.34204102 C-113.41677174 157.93856047 -111.5130078 147.11956484 -107.98828125 136.17578125 C-106.90095402 133.23605541 -106.90095402 133.23605541 -107 131 C-107.88300781 130.5875 -108.76601562 130.175 -109.67578125 129.75 C-117.77111249 125.88536616 -124.8727991 121.49484199 -132 116 C-133.39097131 114.99324804 -134.78610348 113.99218874 -136.1875 113 C-137.115625 112.34 -138.04375 111.68 -139 111 Z M-67 120 C-67.99 123.96 -68.98 127.92 -70 132 C-67.586875 131.814375 -67.586875 131.814375 -65.125 131.625 C-64.22007813 131.55539063 -63.31515625 131.48578125 -62.3828125 131.4140625 C-59.82058097 131.20431868 -59.82058097 131.20431868 -58 129 C-58.48026848 126.05181069 -58.48026848 126.05181069 -60 123 C-62.28536073 121.55911437 -64.40707624 120.86430792 -67 120 Z M-22 120 C-25.60153162 121.65475777 -27.2974477 123.08925078 -28.8125 126.6875 C-29.204375 127.780625 -29.59625 128.87375 -30 130 C-24.06 131.485 -24.06 131.485 -18 133 C-18.28875 131.22625 -18.5775 129.4525 -18.875 127.625 C-19.11863281 126.12839844 -19.11863281 126.12839844 -19.3671875 124.6015625 C-19.7958802 121.8574885 -19.7958802 121.8574885 -22 120 Z M-51 133 C-50.37755401 134.27208622 -49.75193233 135.54261882 -49.125 136.8125 C-48.77695313 137.52019531 -48.42890625 138.22789062 -48.0703125 138.95703125 C-46.9343514 141.21246418 -46.9343514 141.21246418 -45 144 C-44.34 144 -43.68 144 -43 144 C-41.40604084 141.75116689 -41.40604084 141.75116689 -39.875 139 C-39.06675781 137.6078125 -39.06675781 137.6078125 -38.2421875 136.1875 C-37.62730469 135.1046875 -37.62730469 135.1046875 -37 134 C-39.88835114 131.62141336 -39.88835114 131.62141336 -43.4375 130.6875 C-46.2370397 131.02890728 -48.44293123 131.83105427 -51 133 Z M-102 134 C-106.947239 146.53133126 -109.41461849 158.53622532 -110 172 C-97.45105711 172.72630538 -84.59991785 171.09936983 -73 166 C-73.14308594 164.72253906 -73.28617188 163.44507813 -73.43359375 162.12890625 C-73.99601563 157.0671093 -74.53200669 152.00272874 -75.0625 146.9375 C-75.15337891 146.07189453 -75.24425781 145.20628906 -75.33789062 144.31445312 C-75.55883568 142.2096608 -75.77945279 140.10483405 -76 138 C-77.03898437 137.87882813 -78.07796875 137.75765625 -79.1484375 137.6328125 C-86.8384672 136.71583919 -94.4367134 135.70901188 -102 134 Z M7.75 135.4375 C1.2680187 137.45242674 -5.25354326 137.71808754 -12 138 C-12.04898438 138.97839844 -12.09796875 139.95679688 -12.1484375 140.96484375 C-12.55993759 148.18028507 -13.27044581 154.96647961 -15 162 C-15 163.32 -15 164.64 -15 166 C-2.54384943 170.54958691 8.74099041 172.38493899 22 172 C21.72968144 164.34998475 20.76776945 157.08835126 19.125 149.625 C18.96354492 148.87686035 18.80208984 148.1287207 18.63574219 147.35791016 C17.55154977 142.62851546 16.0343332 138.40578448 14 134 C11.62539641 134 9.99728946 134.65987832 7.75 135.4375 Z M-32 135 C-33.340625 136.8975 -34.68125 138.795 -36.0625 140.75 C-36.81660156 141.81734375 -37.57070312 142.8846875 -38.34765625 143.984375 C-40.16204854 146.73989477 -40.16204854 146.73989477 -40.03515625 149.140625 C-36.56130782 155.38044332 -28.25893967 159.87053017 -22 163 C-21.34 163 -20.68 163 -20 163 C-17.76702405 154.66355645 -17.43352989 146.59834276 -17 138 C-21.95 137.01 -26.9 136.02 -32 135 Z M-64.6875 136.5 C-65.86699219 136.7784375 -67.04648438 137.056875 -68.26171875 137.34375 C-69.16535156 137.5603125 -70.06898437 137.776875 -71 138 C-70.60271115 146.52080037 -70.21772491 154.72049367 -68 163 C-62.84563502 161.60777395 -59.31854241 159.3563513 -55.1875 156.125 C-54.60291016 155.69058594 -54.01832031 155.25617188 -53.41601562 154.80859375 C-51.14435822 153.05549545 -49.27763071 151.52983737 -47.93359375 148.96484375 C-48.02953133 146.12622014 -49.20884658 144.70638634 -50.875 142.4375 C-52.74449154 139.85934074 -53.98534639 138.04396084 -55 135 C-58.44122867 135 -61.34012803 135.70458488 -64.6875 136.5 Z M-48.9375 156.5625 C-53.88711024 161.08486375 -59.25965339 164.56652165 -65 168 C-62.36630801 181.13818764 -53.46888416 191.98502528 -45 202 C-40.596685 200.45678213 -38.3776158 197.01107456 -35.75 193.375 C-35.03299927 192.39358032 -35.03299927 192.39358032 -34.30151367 191.39233398 C-29.3157064 184.36456923 -25.58325308 176.81333982 -22 169 C-25.36031139 166.21800307 -28.7746995 163.82802685 -32.5 161.5625 C-36.57188968 159.01962408 -39.7333297 156.47742322 -43 153 C-45.94690376 153 -46.8288461 154.55298715 -48.9375 156.5625 Z M-79.5 172.875 C-89.11895862 176.18261275 -98.89815933 177.2443505 -109 178 C-95.76980146 192.59883977 -76.18399522 200.82494853 -57 204 C-54.66698014 204.03824623 -52.33288492 204.04574284 -50 204 C-50.3403125 203.57332031 -50.680625 203.14664063 -51.03125 202.70703125 C-58.6417665 192.8902746 -64.67366497 182.19740888 -70 171 C-73.89096928 171 -75.91882571 171.55612667 -79.5 172.875 Z M-18 171 C-18.4846875 172.01578125 -18.969375 173.0315625 -19.46875 174.078125 C-24.68283962 184.84629648 -30.4124575 194.68343786 -38 204 C-17.1138935 204.67900216 4.39126049 194.00901367 19.63671875 180.3828125 C21.11700997 179.20495211 21.11700997 179.20495211 21 178 C20.43716309 177.93006836 19.87432617 177.86013672 19.29443359 177.78808594 C8.83930563 176.46281804 -1.23287476 175.02281508 -11.28515625 171.76953125 C-14.17109765 170.81819376 -14.17109765 170.81819376 -18 171 Z " fill="#F7F7D5" transform="translate(162,9)"/>
<path d="M0 0 C3.21459667 1.90494618 5.37684585 3.35593373 6.734375 6.9375 C7.49024561 10.92849682 7.3242347 12.49795918 5.0625 16 C4.381875 16.66 3.70125 17.32 3 18 C4.17214555 21.30331929 5.6823584 24.23136792 7.4375 27.25 C14.93238707 40.51528685 16.03040647 56.02414239 12.4375 70.6875 C9.20825229 81.41362313 4.27480441 91.41946147 -3 100 C-13.31370189 90.8996748 -19.78004846 75.50317139 -21.22070312 61.91894531 C-21.98605292 47.9026665 -20.30763951 34.79428721 -12.171875 22.953125 C-10.74275212 20.9508728 -10.74275212 20.9508728 -11 18 C-11.515625 17.2575 -12.03125 16.515 -12.5625 15.75 C-14.51421609 12.01628227 -14.07791994 10.02423445 -13 6 C-9.23999832 0.42064268 -6.73884491 -0.67388449 0 0 Z " fill="#F7F7D5" transform="translate(21,196)"/>
<path d="M0 0 C3.5477587 0.03814794 4.15394003 0.29982263 7.125 2.625 C11.33008899 8.06687987 11.33008899 8.06687987 11.0625 12.4375 C10.2440468 15.39652312 9.62339853 16.51755768 7.25 18.375 C8.20453099 20.94489114 9.19307616 23.28185189 10.625 25.625 C18.55887332 39.05155485 19.37896772 55.31124148 16.63671875 70.5390625 C13.92521041 80.93118696 8.5091392 92.37482367 1.25 100.375 C0.59 100.375 -0.07 100.375 -0.75 100.375 C-2.29603607 98.32171831 -3.69217908 96.2922611 -5.0625 94.125 C-5.46476807 93.49182861 -5.86703613 92.85865723 -6.28149414 92.20629883 C-13.44696828 80.65108674 -17.15420781 69.0832372 -17.0625 55.5 C-17.05686035 54.62085938 -17.0512207 53.74171875 -17.04541016 52.8359375 C-16.81128644 40.29988722 -12.70830253 29.81245379 -5.75 19.375 C-6.41 18.715 -7.07 18.055 -7.75 17.375 C-9.98848175 14.01727738 -10.39740848 12.24652442 -10.21875 8.30859375 C-9.42701468 5.04268557 -7.28646531 3.41654525 -4.75 1.375 C-3.75 0.375 -3.75 0.375 0 0 Z " fill="#F7F7D5" transform="translate(218.75,195.625)"/>
<path d="M0 0 C4.5354816 2.85949803 7.53965519 5.85251996 9.25 11 C10.05861261 16.90575996 10.15827274 22.04372026 7.625 27.5 C2.58090439 32.80957433 -1.35018813 36.10917288 -8.9375 36.3125 C-14.36927881 36.24074599 -18.42369814 35.37471166 -22.75 32 C-27.59667728 26.68195011 -29.17078098 21.7924963 -29.09765625 14.63671875 C-28.3675834 9.09964941 -25.19432342 5.37210724 -21.25 1.625 C-14.3576864 -2.85500384 -7.48355627 -3.70436035 0 0 Z " fill="#F7F7D5" transform="translate(127.75,315)"/>
<path d="M0 0 C4.33023036 4.01338424 8.91818893 8.38926176 9.8984375 14.453125 C10.01545433 20.9592605 8.63573005 26.05759551 4.13671875 30.9140625 C-1.00950128 35.46188485 -5.51751832 36.8031214 -12.23046875 36.625 C-18.01748841 35.96947919 -21.75863932 32.65043268 -25.4375 28.375 C-28.89474658 23.24873782 -29.26281105 18.37473317 -28.4375 12.375 C-26.61194718 6.4445318 -23.45148193 2.8954554 -18.4375 -0.625 C-12.44789198 -2.62153601 -5.71602945 -2.70212301 0 0 Z " fill="#F7F7D5" transform="translate(63.4375,282.625)"/>
<path d="M0 0 C4.12645157 3.82451609 8.27821721 7.72415573 9.5625 13.375 C9.65363219 20.05043326 8.55986517 25.01011516 4.5625 30.375 C-0.74573263 35.12771992 -5.22333456 36.68186218 -12.41015625 36.6015625 C-16.69405468 36.12282241 -19.93520554 33.70986297 -23.4375 31.375 C-23.4375 30.715 -23.4375 30.055 -23.4375 29.375 C-24.0975 29.375 -24.7575 29.375 -25.4375 29.375 C-29.40566737 23.58808925 -29.45186088 17.18452097 -28.4375 10.375 C-26.25093921 5.45136134 -22.39812556 1.41437667 -17.55859375 -1 C-11.62902765 -2.7472018 -5.57153886 -2.63381837 0 0 Z " fill="#F7F7D5" transform="translate(192.4375,282.625)"/>
<path d="M0 0 C5.82197498 4.7869572 8.49914648 8.32517674 9.65234375 15.79296875 C10.01664821 21.52409986 8.6514537 25.60584486 5.125 30.125 C0.99395624 34.50610695 -3.1569349 36.08688166 -9.125 36.75 C-14.39987906 36.51487942 -18.86232949 34.46107528 -22.73046875 30.88671875 C-27.5172696 25.4541911 -28.61795386 20.79826971 -28.4296875 13.73828125 C-27.91426188 8.57571174 -25.61506801 5.50040628 -21.9375 2.0625 C-15.11266496 -3.38878333 -7.60368964 -4.02548275 0 0 Z " fill="#F7F7D5" transform="translate(192.1875,347.6875)"/>
<path d="M0 0 C4.04204755 3.47804091 8.31587704 7.29717955 8.99609375 12.81640625 C9.2821761 19.60436009 8.66496088 24.02899085 4.45703125 29.46875 C0.41741004 33.67780345 -4.19248095 36.02233355 -10.13671875 36.4609375 C-15.67082507 36.08338626 -20.51675753 34.32590822 -24.24609375 30.14453125 C-28.07364223 24.51794319 -29.77352123 20.22781844 -29.3125 13.3125 C-26.9563453 6.47965136 -23.86813403 1.59031701 -17.3125 -1.6875 C-11.47011577 -3.54868147 -5.39686764 -2.74934767 0 0 Z " fill="#F7F7D5" transform="translate(128.3125,249.6875)"/>
<path d="M0 0 C4.54750225 2.88838037 8.30707335 5.82330041 10.41796875 10.87109375 C11.3930508 18.04357232 11.24098761 24.10790595 7.09765625 30.1875 C3.04268521 34.25190121 -0.56272976 36.37012843 -6.39379883 36.58007812 C-7.41509888 36.56944336 -7.41509888 36.56944336 -8.45703125 36.55859375 C-9.51603638 36.54989258 -9.51603638 36.54989258 -10.59643555 36.54101562 C-15.005243 36.3414714 -17.96355078 35.66315793 -21.39453125 32.87109375 C-25.66871795 28.19118955 -27.24514566 23.56617844 -28.01953125 17.37109375 C-27.11287846 10.1178714 -23.84684872 5.56193564 -18.265625 1 C-13.1086456 -2.45792818 -5.55237908 -2.42759085 0 0 Z " fill="#F7F7D5" transform="translate(126.58203125,380.12890625)"/>
<path d="M0 0 C4.09759387 3.28948371 7.53930463 7.4648882 8.1875 12.8125 C8.76846841 18.85457145 7.43120336 22.83184581 4.1875 27.8125 C-0.84257077 33.45599403 -4.5308336 35.36279174 -11.95703125 35.90234375 C-17.06472688 35.7416365 -20.61232806 33.81622801 -24.34375 30.41796875 C-28.74515272 25.56874889 -30.32398439 20.39883356 -30.125 13.89453125 C-29.3505829 8.73497731 -26.82823545 4.43730775 -23 0.9375 C-15.80382647 -3.85994902 -7.40252842 -4.91388396 0 0 Z " fill="#F7F7D5" transform="translate(64.8125,348.1875)"/>
<path d="M0 0 C2.49187549 0.37318423 3.70188226 0.66388991 5.40039062 2.57885742 C5.81482422 3.24763916 6.22925781 3.9164209 6.65625 4.60546875 C7.12160156 5.34216797 7.58695313 6.07886719 8.06640625 6.83789062 C8.53949219 7.61326172 9.01257813 8.38863281 9.5 9.1875 C10.44767577 10.70197368 11.39558834 12.21629922 12.34375 13.73046875 C12.79234375 14.45540527 13.2409375 15.1803418 13.703125 15.92724609 C15.41193016 18.65837483 17.19540081 21.33140639 19 24 C19.928125 23.690625 20.85625 23.38125 21.8125 23.0625 C23.875 22.375 25.9375 21.6875 28 21 C30 24 30 24 29.9375 26 C28.6195169 28.81169728 26.70396986 29.61334879 24 31 C25.65 33.64 27.3 36.28 29 39 C31.87420123 36.28395285 31.87420123 36.28395285 34 33 C36.16874252 33.50603992 37.99967627 33.99983813 40 35 C38.96745845 37.77991956 37.95899749 40.05857502 36.25 42.5 C34.69494154 44.93220923 34.69494154 44.93220923 35.625 47.5 C36.58406717 49.24375848 37.61133758 50.95096956 38.6875 52.625 C39.120625 53.40875 39.55375 54.1925 40 55 C39.67 55.99 39.34 56.98 39 58 C36.9375 58.6875 36.9375 58.6875 35 59 C31 54.25 31 54.25 31 52 C30.34 52 29.68 52 29 52 C28.731875 52.53625 28.46375 53.0725 28.1875 53.625 C26.79166667 56.41666667 25.39583333 59.20833333 24 62 C24.78375 62.309375 25.5675 62.61875 26.375 62.9375 C29 64 29 64 31 65 C30.34 66.65 29.68 68.3 29 70 C25.13304322 70 22.4911548 68.58090029 19 67 C18.7834375 67.64710938 18.566875 68.29421875 18.34375 68.9609375 C16.49389775 73.14461496 14.01628141 76.81481679 11.5 80.625 C11.00113281 81.388125 10.50226563 82.15125 9.98828125 82.9375 C8.00554917 85.96741229 6.0085703 88.98714456 4 92 C2.02 91.34 0.04 90.68 -2 90 C-2 89.01 -2 88.02 -2 87 C-1.34 87 -0.68 87 0 87 C0.39058594 85.92878906 0.39058594 85.92878906 0.7890625 84.8359375 C2.06202449 81.85474264 3.59781012 79.33346842 5.375 76.625 C8.060404 72.48196544 10.60273029 68.31508547 13 64 C11.35 63.01 9.7 62.02 8 61 C8.33 59.35 8.66 57.7 9 56 C12.76624671 54.74458443 14.37188934 55.62938042 18 57 C21.465 52.05 21.465 52.05 25 47 C23.55244413 44.10488827 22.09685983 41.46872604 20.375 38.75 C19.92898437 38.04359375 19.48296875 37.3371875 19.0234375 36.609375 C18.68570313 36.07828125 18.34796875 35.5471875 18 35 C15.36 35.66 12.72 36.32 10 37 C8 34 8 34 8.125 31.9375 C9.26136587 29.4212613 10.54697726 29.10829341 13 28 C12.5875 27.35675781 12.175 26.71351563 11.75 26.05078125 C10.52665249 24.13657008 9.30971704 22.21825268 8.09765625 20.296875 C6.64771139 18.0180045 5.18087802 15.76249073 3.68359375 13.515625 C2.93454269 12.36481312 2.18583759 11.21377596 1.4375 10.0625 C0.73496094 9.00160156 0.03242188 7.94070313 -0.69140625 6.84765625 C-2 4 -2 4 -1.21484375 1.62109375 C-0.81394531 1.08613281 -0.41304687 0.55117188 0 0 Z " fill="#F7F7D5" transform="translate(131,286)"/>
<path d="M0 0 C2.16874252 0.50603992 3.99967627 0.99983813 6 2 C4.68011344 5.57563497 3.09514012 8.61540153 0.99609375 11.79296875 C0.42052734 12.67017578 -0.15503906 13.54738281 -0.74804688 14.45117188 C-1.34681641 15.35416016 -1.94558594 16.25714844 -2.5625 17.1875 C-3.75213269 18.99294256 -4.94097482 20.79890636 -6.12890625 22.60546875 C-6.65556885 23.40106201 -7.18223145 24.19665527 -7.72485352 25.01635742 C-9.02575703 26.96196133 -9.02575703 26.96196133 -10 29 C-8.02 29.66 -6.04 30.32 -4 31 C-4.33 32.65 -4.66 34.3 -5 36 C-9.17587745 37.39195915 -11.13474776 35.82323219 -15 34 C-15.2475 34.70125 -15.495 35.4025 -15.75 36.125 C-17 39 -17 39 -19.25 42 C-21.32527671 44.79117202 -21.32527671 44.79117202 -20.5 47.4375 C-20.005 48.283125 -19.51 49.12875 -19 50 C-18.65710938 50.61617188 -18.31421875 51.23234375 -17.9609375 51.8671875 C-16.99816658 53.59186346 -16.00146872 55.29750318 -15 57 C-11.97580475 56.41196203 -8.98241547 55.77321882 -6 55 C-4 58 -4 58 -4 61 C-5.98 61.66 -7.96 62.32 -10 63 C-5.19054321 71.12146366 -0.23621564 79.14567655 5 87 C4.625 89.1875 4.625 89.1875 4 91 C2.02 91.495 2.02 91.495 0 92 C-2.50737058 88.21315911 -5.0046316 84.41975843 -7.5 80.625 C-8.21542969 79.54476562 -8.93085937 78.46453125 -9.66796875 77.3515625 C-10.34472656 76.3203125 -11.02148438 75.2890625 -11.71875 74.2265625 C-12.34716797 73.27346191 -12.97558594 72.32036133 -13.62304688 71.33837891 C-15 69 -15 69 -15 67 C-17.97 67.99 -20.94 68.98 -24 70 C-24.66 69.34 -25.32 68.68 -26 68 C-25.9375 66.0625 -25.9375 66.0625 -25 64 C-22.4375 62.25 -22.4375 62.25 -20 61 C-21.98 58.36 -23.96 55.72 -26 53 C-27.32 54.98 -28.64 56.96 -30 59 C-32.16874252 58.49396008 -33.99967627 58.00016187 -36 57 C-35.53067465 53.94938521 -34.740517 52.6589652 -32.8125 50.125 C-30.62782557 47.13479697 -30.62782557 47.13479697 -31.5625 43.875 C-32.84610826 41.30778348 -34.23541575 39.2458345 -36 37 C-36 36.34 -36 35.68 -36 35 C-33.5 33.375 -33.5 33.375 -31 32 C-29.35 34.31 -27.7 36.62 -26 39 C-24.02 36.36 -22.04 33.72 -20 31 C-21.98 29.68 -23.96 28.36 -26 27 C-25.67 25.35 -25.34 23.7 -25 22 C-21.28111761 22.50712033 -18.26545761 23.11608215 -15 25 C-14.77183594 24.3296875 -14.54367188 23.659375 -14.30859375 22.96875 C-12.63249059 19.1662473 -10.40786809 15.91821323 -8.0625 12.5 C-5.26666981 8.38968196 -2.50443119 4.29803373 0 0 Z " fill="#F7F7D5" transform="translate(101,286)"/>
<path d="M0 0 C0.33 1.65 0.66 3.3 1 5 C0.14535156 5.42152344 -0.70929688 5.84304688 -1.58984375 6.27734375 C-3.24693359 7.09912109 -3.24693359 7.09912109 -4.9375 7.9375 C-6.03964844 8.48277344 -7.14179688 9.02804687 -8.27734375 9.58984375 C-10.84794414 10.74704978 -10.84794414 10.74704978 -12 12 C-13.68608966 12.07205511 -15.37500659 12.08386068 -17.0625 12.0625 C-17.98160156 12.05347656 -18.90070313 12.04445313 -19.84765625 12.03515625 C-20.55792969 12.02355469 -21.26820313 12.01195312 -22 12 C-22 11.01 -22 10.02 -22 9 C-19.09465435 7.29241747 -16.17416582 5.61261646 -13.25 3.9375 C-12.0125 3.20950195 -12.0125 3.20950195 -10.75 2.46679688 C-9.95078125 2.01240234 -9.1515625 1.55800781 -8.328125 1.08984375 C-7.5949707 0.66566162 -6.86181641 0.24147949 -6.10644531 -0.19555664 C-3.61993956 -1.14514362 -2.46152694 -0.89753304 0 0 Z " fill="#F7F7D5" transform="translate(161,374)"/>
<path d="M0 0 C4.6029598 1.72497507 8.93255824 3.9095871 13.3125 6.125 C14.05306641 6.49753906 14.79363281 6.87007813 15.55664062 7.25390625 C17.37201217 8.16744806 19.18613282 9.08347487 21 10 C21 10.66 21 11.32 21 12 C19.20841511 12.02696365 17.41671527 12.04637917 15.625 12.0625 C14.62726563 12.07410156 13.62953125 12.08570313 12.6015625 12.09765625 C10 12 10 12 8 11 C8 10.34 8 9.68 8 9 C6.72125 8.690625 5.4425 8.38125 4.125 8.0625 C1.89898325 7.52394756 0.05260001 7.0263 -2 6 C-1.125 1.125 -1.125 1.125 0 0 Z " fill="#F7F7D5" transform="translate(76,373)"/>
<path d="M0 0 C8.57217615 0.14574024 14.89607837 1.02541922 22 6 C21.67 7.65 21.34 9.3 21 11 C17.11728647 11 16.10340379 10.78367479 12.890625 9.03125 C12.13652344 8.62519531 11.38242188 8.21914063 10.60546875 7.80078125 C9.82816406 7.37152344 9.05085937 6.94226563 8.25 6.5 C7.06083984 5.85611328 7.06083984 5.85611328 5.84765625 5.19921875 C3.89428011 4.1401594 1.94541391 3.07359437 0 2 C0 1.34 0 0.68 0 0 Z " fill="#F7F7D5" transform="translate(140,279)"/>
<path d="M0 0 C0 0.66 0 1.32 0 2 C-2.57637588 3.36907416 -5.15968104 4.72028455 -7.75 6.0625 C-8.84441406 6.64741211 -8.84441406 6.64741211 -9.9609375 7.24414062 C-10.66992188 7.60830078 -11.37890625 7.97246094 -12.109375 8.34765625 C-12.75874023 8.68804932 -13.40810547 9.02844238 -14.07714844 9.37915039 C-16.41991018 10.13558044 -17.70456573 9.78821819 -20 9 C-20.33 7.68 -20.66 6.36 -21 5 C-13.84639381 0.6550765 -8.34642647 -0.71404789 0 0 Z " fill="#F7F7D5" transform="translate(95,280)"/>
</svg>
